<?xml version="1.0" ?><!DOCTYPE svg  PUBLIC '-//W3C//DTD SVG 1.1//EN'  'http://www.w3.org/Graphics/SVG/1.1/DTD/svg11.dtd'><svg height="136.833px" id="Layer_1" style="enable-background:new 0 0 136.833 136.833;" version="1.1" viewBox="0 0 136.833 136.833" width="136.833px" xml:space="preserve" xmlns="http://www.w3.org/2000/svg" xmlns:xlink="http://www.w3.org/1999/xlink"><style type="text/css">
<![CDATA[
	.st0{fill:#E22928;}
	.st1{fill:#81C241;}
	.st2{fill:#ED3533;}
	.st3{fill:#EFEFEF;}
	.st4{fill:#F0AE1D;}
	.st5{fill:#5E9A42;}
	.st6{fill:#FFC10E;}
	.st7{fill:#FFFFFF;}
	.st8{fill:#CA2027;}
	.st9{fill:#9B1C1F;}
	.st10{fill:#67AF45;}
	.st11{fill:#CCCBCB;}
	.st12{fill:#333333;}
	.st13{fill:#D22327;}
	.st14{fill:#A2D4DE;}
	.st15{fill:#75CDDE;}
]]>
</style><g><g><g><g><circle class="st6" cx="68.416" cy="68.417" r="63.333"/></g></g><g><g><g><path class="st12" d="M100.411,99.724c-17.7-18.071-46.569-17.996-64.166,0.188c-2.242,2.316,1.29,5.855,3.535,3.535       c15.733-16.258,41.258-16.357,57.096-0.188C99.135,105.566,102.668,102.028,100.411,99.724L100.411,99.724z"/></g></g></g><g><circle class="st12" cx="49.174" cy="46.576" r="9.946"/></g><g><circle class="st12" cx="86.777" cy="46.576" r="9.946"/></g></g><g><path class="st14" d="M96.802,55.497c0,0-7.354,9.053-7.354,18.392c0,4.063,3.29,7.355,7.353,7.356    c4.067-0.002,7.358-3.294,7.358-7.357C104.159,69.366,96.802,55.497,96.802,55.497z"/></g></g></svg>