<?xml version="1.0" ?><!DOCTYPE svg  PUBLIC '-//W3C//DTD SVG 1.1//EN'  'http://www.w3.org/Graphics/SVG/1.1/DTD/svg11.dtd'><svg height="136.834px" id="Layer_1" style="enable-background:new 0 0 136.833 136.834;" version="1.1" viewBox="0 0 136.833 136.834" width="136.833px" xml:space="preserve" xmlns="http://www.w3.org/2000/svg" xmlns:xlink="http://www.w3.org/1999/xlink"><style type="text/css">
<![CDATA[
	.st0{fill:#E22928;}
	.st1{fill:#81C241;}
	.st2{fill:#ED3533;}
	.st3{fill:#EFEFEF;}
	.st4{fill:#F0AE1D;}
	.st5{fill:#5E9A42;}
	.st6{fill:#FFC10E;}
	.st7{fill:#FFFFFF;}
	.st8{fill:#CA2027;}
	.st9{fill:#9B1C1F;}
	.st10{fill:#67AF45;}
	.st11{fill:#CCCBCB;}
	.st12{fill:#333333;}
	.st13{fill:#D22327;}
	.st14{fill:#A2D4DE;}
	.st15{fill:#75CDDE;}
]]>
</style><g><g><g><circle class="st6" cx="68.417" cy="68.417" r="63.333"/></g></g><g><g><path class="st7" d="M26.842,68.462c0,22.96,18.614,41.574,41.574,41.574c22.961,0,41.575-18.614,41.575-41.574H26.842z"/></g></g><g><path class="st11" d="M49.916,68.462c0,12.41,0,24.82,0,37.23c1.61,0.802,3.28,1.499,5,2.09c0-13.107,0-26.213,0-39.32H49.916z"/></g><g><path class="st11" d="M80.808,68.462c0,13.232,0,26.463,0,39.695c1.719-0.536,3.385-1.19,5-1.935c0-12.587,0-25.173,0-37.76    H80.808z"/></g><g><g><g><path class="st12" d="M63.667,47.528c-0.45-8.353-6.412-14.314-14.764-14.764c-8.334-0.449-14.351,7.088-14.764,14.764      c-0.174,3.224,4.827,3.207,5,0c0.678-12.585,18.851-12.585,19.528,0C58.84,50.735,63.841,50.752,63.667,47.528L63.667,47.528z"/></g></g></g><g><g><g><path class="st12" d="M99.694,47.528c-0.45-8.353-6.412-14.314-14.764-14.764c-8.334-0.449-14.35,7.088-14.764,14.764      c-0.174,3.224,4.827,3.207,5,0c0.678-12.585,18.85-12.585,19.528,0C94.867,50.735,99.868,50.752,99.694,47.528L99.694,47.528z"/></g></g></g></g></svg>